<svg width="1081" height="543" viewBox="0 0 1081 543" fill="none" xmlns="http://www.w3.org/2000/svg"><path d="M576.913 30.492c29.965 25.685 31.66 63.766 28.761 79.596l-146.793-7.603c0-7.603 5.151-17.4 3.898-18.792-1.253-1.392-5.15 1.81-6.821 0-1.67-1.81-.139-4.177 1.671-6.265 1.809-2.088 3.062-5.707 2.088-6.96-.975-1.253-2.924 1.253-4.733 3.202-1.81 1.949-4.176 4.037-6.264 2.505-2.088-1.53 7.099-11.275 10.161-13.78 3.063-2.507 12.111-8.77 11.276-10.859-.835-2.088-4.037-1.949-7.378-2.088-3.341-.14-1.392-3.202 3.341-5.568 4.733-2.367 15.452-8.074 14.617-10.023-.836-1.949-2.506-3.364-7.935-3.364s-8.77.998-4.594-4.014c4.176-5.011 16.009-6.82 27.006-8.352 11.275-1.114 27.424 2.645 30.207 2.645 2.784 0 10.163.696 13.364-1.114-.974-2.088-3.897-3.202-7.795-3.758-3.898-.557-6.821-2.645-5.569-4.594 1.253-1.949 14.035-12.92 51.492 19.187Z" fill="#AC61FF"/><mask id="a" style="mask-type:alpha" maskUnits="userSpaceOnUse" x="448" y="7" width="159" height="104"><path d="M576.913 30.492c29.965 25.685 31.66 63.766 28.761 79.596l-146.793-7.603c0-7.603 5.151-17.4 3.898-18.792-1.253-1.392-5.15 1.81-6.821 0-1.67-1.81-.139-4.177 1.671-6.265 1.809-2.088 3.062-5.707 2.088-6.96-.975-1.253-2.924 1.253-4.733 3.202-1.81 1.949-4.176 4.037-6.264 2.505-2.088-1.53 7.099-11.275 10.161-13.78 3.063-2.507 12.111-8.77 11.276-10.859-.835-2.088-4.037-1.949-7.378-2.088-3.341-.14-1.392-3.202 3.341-5.568 4.733-2.367 15.452-8.074 14.617-10.023-.836-1.949-2.506-3.364-7.935-3.364s-8.77.998-4.594-4.014c4.176-5.011 16.009-6.82 27.006-8.352 11.275-1.114 27.424 2.645 30.207 2.645 2.784 0 10.163.696 13.364-1.114-.974-2.088-3.897-3.202-7.795-3.758-3.898-.557-6.821-2.645-5.569-4.594 1.253-1.949 14.035-12.92 51.492 19.187Z" fill="#AC61FF"/></mask><g mask="url(#a)"><g filter="url(#b)"><ellipse cx="532.302" cy="78.505" rx="67.55" ry="43.543" fill="#D95876"/></g><g filter="url(#c)"><ellipse cx="532.302" cy="78.504" rx="59.705" ry="38.486" fill="#FEFFFA"/></g></g><g filter="url(#d)"><circle cx="529.09" cy="451.79" r="289.049" fill="#AC61FF"/></g><g filter="url(#e)"><circle cx="529.09" cy="337.528" r="205.67" fill="#384B97" fill-opacity=".33"/></g><g filter="url(#f)"><circle cx="529.09" cy="337.527" r="136.926" fill="#FF500A"/></g><path d="m444.241 126.723.34-.011v-2.013c0-27.773 10.537-48.757 26.324-62.845 15.794-14.093 36.862-21.303 57.94-21.48 21.078-.177 42.143 6.678 57.934 20.68 15.785 13.998 26.323 35.158 26.323 63.645v1.996l.341.011 7.478.254c2.277 2.616 5.315 7.291 7.125 12.94 1.836 5.729 2.401 12.432-.337 19.003-5.126 12.303-13.779 22.133-17.484 26.341-.293.333-.556.632-.784.894l-.079.091-.007.12c-.46 8.283-4.891 31.487-18.951 57.756l-.054.102.016.114c1.961 13.727 4.911 25.467 7.153 34.387l.001.003c1.038 4.132 1.922 7.651 2.488 10.487l.052.259.264.023c57.677 4.868 108.226 14.904 145.284 24.293 18.528 4.694 33.682 9.227 44.666 12.87 5.492 1.822 9.94 3.421 13.245 4.706 3.315 1.29 5.455 2.254 6.352 2.806.173.107.465.377.885.846.41.459.919 1.081 1.522 1.862 1.206 1.561 2.778 3.738 4.679 6.47 3.8 5.463 8.904 13.13 15.001 22.488 12.193 18.715 28.353 44.184 45.99 72.289 35.251 56.172 76.397 122.863 103.553 167.176v44.543H76.679v-44.543c27.156-44.313 68.302-111.004 103.553-167.176 17.637-28.105 33.797-53.574 45.991-72.289 6.097-9.358 11.201-17.025 15.001-22.488 1.9-2.732 3.472-4.909 4.678-6.47a34.944 34.944 0 0 1 1.523-1.862c.419-.469.711-.739.884-.846.897-.552 3.037-1.516 6.353-2.806 3.305-1.285 7.753-2.884 13.245-4.706 10.983-3.643 26.137-8.176 44.666-12.87 37.057-9.389 87.607-19.425 145.284-24.293l.264-.023.052-.259c.565-2.836 1.449-6.355 2.488-10.487l.001-.003c2.241-8.921 5.191-20.66 7.152-34.387l.017-.114-.055-.102c-14.059-26.269-18.49-49.473-18.951-57.756l-.006-.12-.079-.091c-.228-.262-.491-.561-.784-.894-3.705-4.207-12.358-14.038-17.484-26.341-2.738-6.571-2.173-13.274-.337-19.003 1.81-5.649 4.847-10.324 7.124-12.94l6.982-.237Z" fill="#0F0A1E" stroke="url(#g)" stroke-width=".705"/><ellipse cx="529.09" cy="337.527" rx="450.637" ry="130.888" transform="rotate(-164.522 529.09 337.527)" stroke="url(#h)" stroke-width=".463"/><g filter="url(#i)"><circle cx="529.09" cy="337.528" r="70.761" fill="#FF500A"/></g><path d="M430.122 19.134c4.045-1.257 8.702-.312 13.887 2.703 5.185 3.016 10.869 8.087 16.947 15.026 12.154 13.878 25.844 35.185 40.217 62.325 28.743 54.275 60.196 131.832 87.542 219.806 27.345 87.973 45.402 169.695 52.492 230.701 3.546 30.505 4.347 55.818 2.202 74.141-1.072 9.162-2.881 16.562-5.442 21.985-2.562 5.423-5.863 8.842-9.908 10.1-4.046 1.257-8.703.312-13.888-2.703-5.185-3.016-10.869-8.087-16.947-15.026-12.154-13.878-25.844-35.185-40.217-62.325-28.743-54.275-60.196-131.832-87.541-219.806-27.346-87.973-45.403-169.695-52.493-230.701-3.545-30.505-4.347-55.819-2.202-74.14 1.073-9.163 2.881-16.563 5.442-21.986 2.562-5.424 5.863-8.842 9.909-10.1Z" stroke="url(#j)" stroke-width=".463"/><path d="M692.088 157.728c6.315 5.725 7.877 16.186 5.179 30.312-2.695 14.111-9.627 31.801-20.184 51.884-21.111 40.164-56.689 89.851-101.734 139.538-45.044 49.688-91.014 89.954-128.921 114.892-18.955 12.469-35.882 21.099-49.662 25.161-13.795 4.066-24.358 3.534-30.673-2.191-6.315-5.725-7.877-16.186-5.18-30.312 2.695-14.111 9.628-31.801 20.184-51.884 21.112-40.164 56.69-89.852 101.734-139.539 45.044-49.687 91.015-89.953 128.922-114.891 18.954-12.47 35.882-21.099 49.661-25.161 13.795-4.066 24.358-3.534 30.674 2.191Z" stroke="url(#k)" stroke-width=".463"/><path d="M637.891 296.675c.317.844-.023 1.981-1.125 3.425-1.093 1.431-2.886 3.097-5.325 4.964-4.874 3.731-12.278 8.226-21.663 13.192-18.768 9.929-45.426 21.722-75.524 33.024-30.098 11.301-57.93 19.967-78.595 24.844-10.334 2.439-18.867 3.928-24.992 4.327-3.065.2-5.512.125-7.276-.233-1.781-.361-2.784-.994-3.101-1.838-.317-.843.022-1.981 1.125-3.425 1.092-1.43 2.886-3.097 5.324-4.963 4.874-3.731 12.279-8.227 21.664-13.192 18.768-9.93 45.426-21.723 75.524-33.024 30.098-11.301 57.93-19.968 78.595-24.845 10.334-2.438 18.867-3.927 24.992-4.326 3.064-.2 5.512-.126 7.276.232 1.78.362 2.784.995 3.101 1.838Z" stroke="#AC61FF" stroke-width=".463"/><path d="M566.975 254.087c.16.073.549.427.734 1.807.173 1.295.114 3.146-.204 5.539-.633 4.769-2.254 11.414-4.739 19.482-4.965 16.12-13.324 37.747-23.904 61.049s-21.36 43.83-30.229 58.177c-4.438 7.181-8.375 12.775-11.548 16.39-1.593 1.815-2.947 3.078-4.037 3.8-1.16.768-1.683.709-1.843.637-.16-.073-.549-.428-.733-1.807-.174-1.296-.115-3.147.203-5.54.633-4.769 2.254-11.414 4.739-19.482 4.965-16.12 13.324-37.746 23.904-61.049 10.58-23.302 21.36-43.829 30.229-58.177 4.439-7.18 8.375-12.774 11.548-16.39 1.593-1.815 2.947-3.077 4.037-3.799 1.16-.769 1.683-.71 1.843-.637Z" stroke="#fff" stroke-width="2.316"/><path d="M445.861 299.739c.019-.042.26-.416 1.626-.599 1.266-.17 3.093-.114 5.479.203 4.75.631 11.381 2.247 19.444 4.731 16.108 4.961 37.725 13.316 61.021 23.893 23.297 10.578 43.814 21.353 58.151 30.215 7.177 4.437 12.758 8.365 16.36 11.526 1.808 1.587 3.053 2.926 3.759 3.991.761 1.149.638 1.576.619 1.619-.02.042-.261.416-1.627.599-1.266.17-3.093.114-5.478-.203-4.751-.631-11.381-2.247-19.445-4.731-16.108-4.961-37.725-13.316-61.021-23.893-23.296-10.578-43.814-21.353-58.151-30.215-7.177-4.437-12.758-8.365-16.359-11.526-1.809-1.587-3.054-2.926-3.759-3.991-.761-1.148-.639-1.576-.619-1.619Z" stroke="#fff" stroke-width="2.779"/><path d="M488.238 228.727c.843-.316 1.981.023 3.425 1.125 1.43 1.093 3.097 2.886 4.963 5.325 3.731 4.874 8.227 12.278 13.192 21.664 9.93 18.768 21.723 45.425 33.024 75.523 11.301 30.098 19.968 57.93 24.845 78.595 2.439 10.334 3.928 18.868 4.326 24.993.2 3.064.126 5.511-.232 7.275-.362 1.781-.995 2.785-1.838 3.101-.844.317-1.981-.022-3.425-1.125-1.431-1.092-3.097-2.886-4.964-5.324-3.731-4.874-8.226-12.278-13.192-21.664-9.929-18.768-21.722-45.426-33.023-75.524-11.302-30.098-19.968-57.929-24.845-78.595-2.439-10.334-3.928-18.867-4.327-24.992-.199-3.064-.125-5.512.233-7.276.361-1.78.994-2.784 1.838-3.101Z" stroke="#AC61FF" stroke-width=".463"/><g filter="url(#l)"><circle cx="529.09" cy="337.528" r="70.761" fill="#AC61FF"/></g><g opacity=".47" filter="url(#m)"><path d="M677.133 337.529c0 81.762-66.281 148.043-148.043 148.043s-148.044-66.281-148.044-148.043 66.282-148.044 148.044-148.044c81.762 0 148.043 66.282 148.043 148.044Z" fill="#AC61FF"/></g><g filter="url(#n)"><circle cx="529.09" cy="337.528" r="43.543" fill="#FFFCEF"/></g><circle cx="529.09" cy="337.528" r="33.261" fill="#FEFFFA"/><path d="M350.488 527.301c-12.004 26.833-62.375 75.615-86.06 96.652H.95l267.008-144.316a19548.821 19548.821 0 0 1-17.212-96.211c-5.533-31.452-6.242-62.664-5.743-80.559.175-6.271 1.855-12.362 4.699-17.954 12.227-24.04 31.65-59.473 36.351-57.279 6.62 3.09 7.503 14.123 5.737 22.95-1.765 8.826-15.005 33.1-15.005 37.955v26.921c6.62-26.775 24.075-77.315 29.265-74.633 8.958 4.629 12.662 6.667 11.779 17.701-.563 7.037-6.774 28.194-11.655 43.789 4.774-13.515 12.056-28.391 19.794-23.969 9.886 5.649 3.777 37.553-1.96 48.587-4.59 8.827-7.797 28.981-8.827 37.955 4.266-4.855 13.682-15.889 17.212-21.185 4.414-6.619 14.123-12.798 21.626-8.826 6.002 3.177 4.56 11.621 3.089 15.446l15.871-9.29c1.093-.64 2.479-.016 2.651 1.239.598 4.346 1.005 11.46-.427 17.761-2.207 9.709-18.095 19.86-21.184 32.217-3.09 12.358 7.061 47.664 9.709 66.2 2.648 18.536 1.765 35.307-13.24 68.849Z" fill="#190133"/><mask id="o" style="mask-type:alpha" maskUnits="userSpaceOnUse" x="0" y="227" width="377" height="397"><path d="M350.488 527.301c-12.004 26.833-62.375 75.615-86.06 96.652H.95l267.008-144.316a19548.821 19548.821 0 0 1-17.212-96.211c-5.533-31.452-6.242-62.664-5.743-80.559.175-6.271 1.855-12.362 4.699-17.954 12.227-24.04 31.65-59.473 36.351-57.279 6.62 3.09 7.503 14.123 5.737 22.95-1.765 8.826-15.005 33.1-15.005 37.955v26.921c6.62-26.775 24.075-77.315 29.265-74.633 8.958 4.629 12.662 6.667 11.779 17.701-.563 7.037-6.774 28.194-11.655 43.789 4.774-13.515 12.056-28.391 19.794-23.969 9.886 5.649 3.777 37.553-1.96 48.587-4.59 8.827-7.797 28.981-8.827 37.955 4.266-4.855 13.682-15.889 17.212-21.185 4.414-6.619 14.123-12.798 21.626-8.826 6.002 3.177 4.56 11.621 3.089 15.446l15.871-9.29c1.093-.64 2.479-.016 2.651 1.239.598 4.346 1.005 11.46-.427 17.761-2.207 9.709-18.095 19.86-21.184 32.217-3.09 12.358 7.061 47.664 9.709 66.2 2.648 18.536 1.765 35.307-13.24 68.849Z" fill="#6103C9"/></mask><g mask="url(#o)"><path d="M288.001 240.226c.688-6.424-4.493-12.045-7.17-14.052l10.611-12.331 72.555-3.442 33.553 110.123c-4.302 40.054-14.568 126.24-21.221 150.559-6.654 24.319-18.45 44.929-23.516 52.194.191-2.39 2.62-5.45 4.015-20.361 1.269-13.574-11.758-28.678-18.354-41.583-6.596-12.905-11.471-34.414-6.883-49.613 4.588-15.199 32.406-45.024 36.421-51.333 3.212-5.048 3.059-15.869 2.581-20.648h-9.177l-3.601 10.061c-11.812 8.222-29.646 22.582-36.835 30.374-7.101 7.699-14.912 17.781-16.633 23.516l-8.603-23.516c8.412-23.324 26.097-73.186 29.538-86.033 3.441-12.848-1.434-23.134-4.302-26.671-5.544 17.111-4.58 6.467-9.386 16.88 2.983-11.242 1.602-29.903-3.738-44.124l-7.524-5.448-16.059 42.443c-1.148 1.816-5.342 6.136-3.442 0 3.441-11.116 6.309-28.965 7.17-36.995Z" fill="#9283F0"/><mask id="p" style="mask-type:alpha" maskUnits="userSpaceOnUse" x="280" y="210" width="118" height="314"><path d="M288.001 240.225c.688-6.424-4.493-12.045-7.17-14.052l10.611-12.331 72.555-3.442 33.553 110.123c-4.302 40.054-14.568 126.24-21.221 150.559-6.654 24.319-18.45 44.929-23.516 52.194.191-2.39 2.62-5.45 4.015-20.361 1.269-13.574-11.758-28.678-18.354-41.583-6.596-12.905-11.471-34.414-6.883-49.613 4.588-15.199 32.406-45.024 36.421-51.333 3.212-5.048 3.059-15.869 2.581-20.648h-9.177l-3.601 10.061c-11.812 8.222-29.646 22.582-36.835 30.374-7.101 7.699-14.912 17.781-16.633 23.516l-8.603-23.516c8.412-23.324 26.097-73.186 29.538-86.033 3.441-12.848-1.434-23.134-4.302-26.671-5.544 17.112-4.58 6.467-9.386 16.88 2.983-11.242 1.602-29.903-3.738-44.124l-7.524-5.448-16.059 42.443c-1.148 1.816-5.342 6.136-3.442 0 3.441-11.116 6.309-28.965 7.17-36.995Z" fill="#E8512C"/></mask><g mask="url(#p)"><path d="M326.143 367.946c-3.866-24.053-1.611-34.004 0-35.972 1.252-7.517 5.583-24.161 12.885-30.604 7.302-6.443 37.404 2.685 51.542 8.054l6.98 19.865-6.98 95.031c-7.158 15.749-24.59 41.878-37.046 20.402-15.57-26.845-22.549-46.71-27.381-76.776Z" fill="#FAC4FF"/></g><path d="M265.331 283.083c2.463-12.506 6.449-22.809 9.86-31.626 4.757-12.297 8.396-21.702 5.225-30.158-4.356-11.616-25.712 4.537-35.845 14.066v52.179l-5.899 38.568 10.327 22.607 26.515 135.523-294.103 150.471 228.272 12.824c37.333-37.048 112.854-118.154 116.273-146.197 3.42-28.042-19.664-102.309-31.633-135.937-32.448-17.463-30.115-75.471-28.992-82.32Z" fill="#000"/></g><path d="M730.735 527.301c12.004 26.833 62.375 75.615 86.061 96.652h263.474L813.265 479.637c2.942-16.182 10.504-58.08 17.212-96.211 5.533-31.452 6.242-62.664 5.743-80.559-.175-6.271-1.855-12.362-4.699-17.954-12.227-24.04-31.65-59.473-36.351-57.279-6.62 3.09-7.503 14.123-5.737 22.95 1.765 8.826 15.005 33.1 15.005 37.955v26.921c-6.62-26.775-24.074-77.315-29.265-74.633-8.958 4.629-12.662 6.667-11.779 17.701.563 7.037 6.774 28.194 11.655 43.789-4.774-13.515-12.056-28.391-19.794-23.969-9.886 5.649-3.777 37.553 1.96 48.587 4.59 8.827 7.797 28.981 8.827 37.955-4.266-4.855-13.681-15.889-17.212-21.185-4.413-6.619-14.123-12.798-21.626-8.826-6.002 3.177-4.56 11.621-3.089 15.446l-15.87-9.29c-1.094-.64-2.48-.016-2.652 1.239-.598 4.346-1.005 11.46.427 17.761 2.207 9.709 18.095 19.86 21.184 32.217 3.09 12.358-7.061 47.664-9.709 66.2-2.648 18.536-1.765 35.307 13.24 68.849Z" fill="#190133"/><mask id="q" style="mask-type:alpha" maskUnits="userSpaceOnUse" x="705" y="227" width="376" height="397"><path d="M730.735 527.301c12.004 26.833 62.375 75.615 86.061 96.652h263.474L813.265 479.637c2.942-16.182 10.504-58.08 17.212-96.211 5.533-31.452 6.242-62.664 5.743-80.559-.175-6.271-1.855-12.362-4.699-17.954-12.227-24.04-31.65-59.473-36.351-57.279-6.62 3.09-7.503 14.123-5.737 22.95 1.765 8.826 15.005 33.1 15.005 37.955v26.921c-6.62-26.775-24.074-77.315-29.265-74.633-8.958 4.629-12.662 6.667-11.779 17.701.563 7.037 6.774 28.194 11.655 43.789-4.774-13.515-12.056-28.391-19.794-23.969-9.886 5.649-3.777 37.553 1.96 48.587 4.59 8.827 7.797 28.981 8.827 37.955-4.266-4.855-13.681-15.889-17.212-21.185-4.413-6.619-14.123-12.798-21.626-8.826-6.002 3.177-4.56 11.621-3.089 15.446l-15.87-9.29c-1.094-.64-2.48-.016-2.652 1.239-.598 4.346-1.005 11.46.427 17.761 2.207 9.709 18.095 19.86 21.184 32.217 3.09 12.358-7.061 47.664-9.709 66.2-2.648 18.536-1.765 35.307 13.24 68.849Z" fill="#6103C9"/></mask><g mask="url(#q)"><path d="M793.222 240.226c-.688-6.424 4.493-12.045 7.17-14.052l-10.611-12.331-72.555-3.442-33.553 110.123c4.302 40.054 14.568 126.24 21.222 150.559 6.653 24.319 18.449 44.929 23.515 52.194-.191-2.39-2.62-5.45-4.014-20.361-1.27-13.574 11.758-28.678 18.353-41.583 6.596-12.905 11.472-34.414 6.883-49.613-4.588-15.199-32.406-45.024-36.421-51.333-3.212-5.048-3.059-15.869-2.581-20.648h9.177l3.602 10.061c11.812 8.222 29.646 22.582 36.834 30.374 7.101 7.699 14.912 17.781 16.633 23.516l8.603-23.516c-8.412-23.324-26.096-73.186-29.538-86.033-3.441-12.848 1.434-23.134 4.302-26.671 5.544 17.111 4.58 6.467 9.386 16.88-2.983-11.242-1.602-29.903 3.738-44.124l7.524-5.448 16.06 42.443c1.147 1.816 5.341 6.136 3.441 0-3.441-11.116-6.309-28.965-7.17-36.995Z" fill="#9283F0"/><mask id="r" style="mask-type:alpha" maskUnits="userSpaceOnUse" x="683" y="210" width="118" height="314"><path d="M793.222 240.225c-.688-6.424 4.493-12.045 7.17-14.052l-10.611-12.331-72.555-3.442-33.553 110.123c4.302 40.054 14.568 126.24 21.222 150.559 6.653 24.319 18.449 44.929 23.515 52.194-.191-2.39-2.62-5.45-4.014-20.361-1.27-13.574 11.758-28.678 18.353-41.583 6.596-12.905 11.472-34.414 6.883-49.613-4.588-15.199-32.406-45.024-36.421-51.333-3.212-5.048-3.059-15.869-2.581-20.648h9.177l3.602 10.061c11.812 8.222 29.646 22.582 36.834 30.374 7.101 7.699 14.912 17.781 16.633 23.516l8.603-23.516c-8.412-23.324-26.096-73.186-29.538-86.033-3.441-12.848 1.434-23.134 4.302-26.671 5.544 17.112 4.58 6.467 9.386 16.88-2.983-11.242-1.602-29.903 3.738-44.124l7.524-5.448 16.06 42.443c1.147 1.816 5.341 6.136 3.441 0-3.441-11.116-6.309-28.965-7.17-36.995Z" fill="#E8512C"/></mask><g mask="url(#r)"><path d="M755.08 367.946c3.866-24.053 1.611-34.004 0-35.972-1.253-7.517-5.584-24.161-12.885-30.604-7.302-6.443-37.404 2.685-51.543 8.054l-6.979 19.865 6.979 95.031c7.159 15.749 24.59 41.878 37.046 20.402 15.57-26.845 22.55-46.71 27.382-76.776Z" fill="#FAC4FF"/></g><path d="M815.893 283.083c-2.464-12.506-6.45-22.809-9.861-31.626-4.757-12.297-8.396-21.702-5.225-30.158 4.356-11.616 25.712 4.537 35.845 14.066v52.179l5.899 38.568-10.327 22.607-26.515 135.523 294.101 150.471-228.27 12.824c-37.333-37.048-112.853-118.154-116.273-146.197-3.42-28.042 19.664-102.309 31.633-135.937 32.448-17.463 30.115-75.471 28.993-82.32Z" fill="#000"/></g><rect x="448.414" y="115.464" width="161.352" height="36.055" rx="11.155" fill="#fff"/><rect x="439.45" y="127.117" width="8.964" height="18.526" rx="1.594" fill="#393871"/><rect x="609.766" y="127.117" width="8.964" height="18.526" rx="1.594" fill="#393871"/><path d="M459.569 127.117c-6.161 0-11.155 4.995-11.155 11.155v27.888c0 6.161 4.994 11.156 11.155 11.156h54.887l2.835-10.897a12.191 12.191 0 0 1 23.598 0l2.835 10.897h54.887c6.161 0 11.155-4.995 11.155-11.156v-27.888c0-6.16-4.994-11.155-11.155-11.155H459.569Z" fill="url(#s)"/><mask id="t" style="mask-type:alpha" maskUnits="userSpaceOnUse" x="448" y="127" width="162" height="51"><path d="M459.57 127.116c-6.161 0-11.155 4.995-11.155 11.155v27.888c0 6.161 4.994 11.156 11.155 11.156h54.887l2.834-10.897a12.192 12.192 0 0 1 23.599 0l2.834 10.897h54.887c6.161 0 11.156-4.995 11.156-11.156v-27.888c0-6.16-4.995-11.155-11.156-11.155H459.57Z" fill="#0A0A0A"/></mask><g mask="url(#t)"><path d="M516.311 98.627h5.107l-30.763 56.978h-5.107l30.763-56.978Zm-19.627-9.963h8.828l-30.763 56.978h-8.828l30.763-56.978Z" fill="#fff" style="mix-blend-mode:soft-light"/></g><path d="m529.598 338.944 103.048-195.25m-103.048 195.25-68.7 94.01m68.7-94.01-133.783 55.14m133.783-55.14-256.719 55.14m256.719-55.14L395.815 308.21m133.783 30.734L395.815 219.625m133.783 119.319-10.848-195.25m10.848 195.25 103.048-60.563m-103.048 60.563 97.625 55.14m-97.625-55.14 103.048 94.01" stroke="url(#u)"/><defs><filter id="b" x="449.234" y="19.444" width="166.136" height="118.121" filterUnits="userSpaceOnUse" color-interpolation-filters="sRGB"><feFlood flood-opacity="0" result="BackgroundImageFix"/><feBlend in="SourceGraphic" in2="BackgroundImageFix" result="shape"/><feGaussianBlur stdDeviation="7.759" result="effect1_foregroundBlur_6447_13661"/></filter><filter id="c" x="457.079" y="24.501" width="150.445" height="108.007" filterUnits="userSpaceOnUse" color-interpolation-filters="sRGB"><feFlood flood-opacity="0" result="BackgroundImageFix"/><feBlend in="SourceGraphic" in2="BackgroundImageFix" result="shape"/><feGaussianBlur stdDeviation="7.759" result="effect1_foregroundBlur_6447_13661"/></filter><filter id="d" x="101.075" y="23.775" width="856.031" height="856.031" filterUnits="userSpaceOnUse" color-interpolation-filters="sRGB"><feFlood flood-opacity="0" result="BackgroundImageFix"/><feBlend in="SourceGraphic" in2="BackgroundImageFix" result="shape"/><feGaussianBlur stdDeviation="69.483" result="effect1_foregroundBlur_6447_13661"/></filter><filter id="e" x="287.938" y="96.376" width="482.305" height="482.304" filterUnits="userSpaceOnUse" color-interpolation-filters="sRGB"><feFlood flood-opacity="0" result="BackgroundImageFix"/><feBlend in="SourceGraphic" in2="BackgroundImageFix" result="shape"/><feGaussianBlur stdDeviation="17.741" result="effect1_foregroundBlur_6447_13661"/></filter><filter id="f" x="347.556" y="155.993" width="363.068" height="363.068" filterUnits="userSpaceOnUse" color-interpolation-filters="sRGB"><feFlood flood-opacity="0" result="BackgroundImageFix"/><feBlend in="SourceGraphic" in2="BackgroundImageFix" result="shape"/><feGaussianBlur stdDeviation="22.304" result="effect1_foregroundBlur_6447_13661"/></filter><filter id="i" x="400.01" y="208.447" width="258.162" height="258.161" filterUnits="userSpaceOnUse" color-interpolation-filters="sRGB"><feFlood flood-opacity="0" result="BackgroundImageFix"/><feBlend in="SourceGraphic" in2="BackgroundImageFix" result="shape"/><feGaussianBlur stdDeviation="29.16" result="effect1_foregroundBlur_6447_13661"/></filter><filter id="l" x="422.846" y="231.284" width="212.488" height="212.488" filterUnits="userSpaceOnUse" color-interpolation-filters="sRGB"><feFlood flood-opacity="0" result="BackgroundImageFix"/><feBlend in="SourceGraphic" in2="BackgroundImageFix" result="shape"/><feGaussianBlur stdDeviation="17.741" result="effect1_foregroundBlur_6447_13661"/></filter><filter id="m" x="303.098" y="111.537" width="451.983" height="451.983" filterUnits="userSpaceOnUse" color-interpolation-filters="sRGB"><feFlood flood-opacity="0" result="BackgroundImageFix"/><feBlend in="SourceGraphic" in2="BackgroundImageFix" result="shape"/><feGaussianBlur stdDeviation="38.974" result="effect1_foregroundBlur_6447_13661"/></filter><filter id="n" x="470.029" y="278.467" width="118.121" height="118.121" filterUnits="userSpaceOnUse" color-interpolation-filters="sRGB"><feFlood flood-opacity="0" result="BackgroundImageFix"/><feBlend in="SourceGraphic" in2="BackgroundImageFix" result="shape"/><feGaussianBlur stdDeviation="7.759" result="effect1_foregroundBlur_6447_13661"/></filter><linearGradient id="g" x1="529.09" y1="389.121" x2="529.09" y2="650.181" gradientUnits="userSpaceOnUse"><stop stop-color="#fff" stop-opacity="0"/><stop offset="1" stop-color="#fff"/></linearGradient><linearGradient id="h" x1="979.727" y1="337.527" x2="78.453" y2="337.527" gradientUnits="userSpaceOnUse"><stop stop-color="#FEFDFF"/><stop offset="1" stop-color="#fff" stop-opacity="0"/></linearGradient><linearGradient id="j" x1="653.146" y1="503.304" x2="182.319" y2="373.615" gradientUnits="userSpaceOnUse"><stop stop-color="#AC61FF"/><stop offset="1" stop-color="#AC61FF" stop-opacity=".31"/></linearGradient><linearGradient id="k" x1="692.243" y1="157.556" x2="365.938" y2="517.495" gradientUnits="userSpaceOnUse"><stop stop-color="#AC61FF"/><stop offset="1" stop-color="#AC61FF" stop-opacity=".31"/></linearGradient><linearGradient id="s" x1="560.166" y1="190.559" x2="560.166" y2="121.229" gradientUnits="userSpaceOnUse"><stop stop-color="#FF003F"/><stop offset="1" stop-color="#AE62E8"/></linearGradient><radialGradient id="u" cx="0" cy="0" r="1" gradientUnits="userSpaceOnUse" gradientTransform="matrix(-82.22506 101.88808 -126.72353 -102.2676 534.988 331.065)"><stop stop-color="#fff"/><stop offset="1" stop-color="#fff" stop-opacity=".25"/></radialGradient></defs></svg>
