<svg width="98" height="98" viewBox="0 0 98 98" fill="none" xmlns="http://www.w3.org/2000/svg"><path d="M27.549 8.952a2.479 2.479 0 0 1 3.505 0l7.887 7.887a2.479 2.479 0 1 1-3.505 3.506l-7.887-7.888a2.479 2.479 0 0 1 0-3.505ZM8.207 28.294a2.479 2.479 0 0 0 0 3.505l7.887 7.887a2.479 2.479 0 1 0 3.506-3.505l-7.888-7.887a2.479 2.479 0 0 0-3.505 0Z" fill="#AC61FF"/><path d="M27.549 8.952a2.479 2.479 0 0 1 3.505 0l7.887 7.887a2.479 2.479 0 1 1-3.505 3.506l-7.887-7.888a2.479 2.479 0 0 1 0-3.505ZM8.207 28.294a2.479 2.479 0 0 0 0 3.505l7.887 7.887a2.479 2.479 0 1 0 3.506-3.505l-7.888-7.887a2.479 2.479 0 0 0-3.505 0ZM58.21 78.297a2.479 2.479 0 0 0 0 3.506l7.887 7.887a2.479 2.479 0 1 0 3.506-3.505l-7.888-7.888a2.479 2.479 0 0 0-3.505 0Zm19.342-19.341a2.479 2.479 0 0 1 3.505 0l7.887 7.887a2.479 2.479 0 1 1-3.505 3.506l-7.887-7.888a2.479 2.479 0 0 1 0-3.505Z" fill="#AC61FF"/><path d="M77.552 58.956a2.479 2.479 0 0 1 3.505 0l7.887 7.887a2.479 2.479 0 1 1-3.505 3.506l-7.887-7.888a2.479 2.479 0 0 1 0-3.505ZM58.21 78.297a2.479 2.479 0 0 0 0 3.506l7.887 7.887a2.479 2.479 0 1 0 3.506-3.505l-7.888-7.888a2.479 2.479 0 0 0-3.505 0Z" fill="#AC61FF"/><path fill-rule="evenodd" clip-rule="evenodd" d="M41.272 42.019c4.034-4.034 10.574-4.034 14.608 0 4.033 4.034 4.033 10.574 0 14.607-4.034 4.034-10.574 4.034-14.608 0-4.034-4.033-4.034-10.573 0-14.607Zm11.12 3.488a5.397 5.397 0 1 0-7.632 7.632 5.397 5.397 0 0 0 7.632-7.633Z" fill="#AC61FF"/><path fill-rule="evenodd" clip-rule="evenodd" d="M51.055 3.225a2.479 2.479 0 0 0-4.958 0V27.52a21.838 21.838 0 0 0-11.186 4.632L15.023 12.263a2.479 2.479 0 1 0-3.505 3.506l19.888 19.888a21.837 21.837 0 0 0-4.633 11.186H2.48a2.479 2.479 0 1 0 0 4.958h24.294a21.85 21.85 0 0 0 6.287 13.037 21.85 21.85 0 0 0 13.037 6.287V95.42a2.479 2.479 0 0 0 4.958 0V71.125a21.837 21.837 0 0 0 11.186-4.633L82.13 86.38a2.479 2.479 0 1 0 3.505-3.505L65.747 62.987A21.838 21.838 0 0 0 70.379 51.8h24.295a2.479 2.479 0 1 0 0-4.958H70.378a21.849 21.849 0 0 0-6.287-13.036 21.85 21.85 0 0 0-13.036-6.287V3.225Zm-14.507 34.07c6.643-6.643 17.413-6.643 24.056 0 6.642 6.642 6.642 17.413 0 24.055-6.643 6.643-17.413 6.643-24.056 0-6.643-6.642-6.643-17.413 0-24.055Z" fill="#AC61FF"/><path d="M67.106 27.287a2.478 2.478 0 1 0 3.505 3.506l15.024-15.024a2.479 2.479 0 0 0-3.506-3.506L67.106 27.287ZM11.518 82.875a2.479 2.479 0 1 0 3.505 3.505l15.274-15.274a2.479 2.479 0 0 0-3.505-3.506L11.518 82.875Z" fill="#AC61FF"/></svg>
